<svg id="Layer_1" data-name="Layer 1" xmlns="http://www.w3.org/2000/svg" viewBox="0 0 9.35 8.25"><defs><style>.cls-1{fill:#14151e;}</style></defs><path class="cls-1" d="M8.6,5.25H8a7.11,7.11,0,0,0-2.54.52,5.77,5.77,0,0,0-2,1.2A.75.75,0,0,0,3.47,8,.75.75,0,0,0,4.53,8,4.53,4.53,0,0,1,6,7.17a5.69,5.69,0,0,1,2-.42h.6a.75.75,0,0,0,0-1.5ZM7.25,2.5A1.25,1.25,0,1,0,6,1.25,1.25,1.25,0,0,0,7.25,2.5ZM1.25,0A1.25,1.25,0,1,0,2.5,1.25,1.25,1.25,0,0,0,1.25,0ZM8.6,5.25H8a7.11,7.11,0,0,0-2.54.52,5.77,5.77,0,0,0-2,1.2A.75.75,0,0,0,3.47,8,.75.75,0,0,0,4.53,8,4.53,4.53,0,0,1,6,7.17a5.69,5.69,0,0,1,2-.42h.6a.75.75,0,0,0,0-1.5ZM7.25,2.5A1.25,1.25,0,1,0,6,1.25,1.25,1.25,0,0,0,7.25,2.5ZM1.25,0A1.25,1.25,0,1,0,2.5,1.25,1.25,1.25,0,0,0,1.25,0ZM8.6,5.25H8a7.11,7.11,0,0,0-2.54.52,5.77,5.77,0,0,0-2,1.2A.75.75,0,0,0,3.47,8,.75.75,0,0,0,4.53,8,4.53,4.53,0,0,1,6,7.17a5.69,5.69,0,0,1,2-.42h.6a.75.75,0,0,0,0-1.5ZM7.25,0A1.25,1.25,0,1,0,8.5,1.25,1.25,1.25,0,0,0,7.25,0Zm-6,0A1.25,1.25,0,1,0,2.5,1.25,1.25,1.25,0,0,0,1.25,0Z"/></svg>