<svg id="Layer_1" data-name="Layer 1" xmlns="http://www.w3.org/2000/svg" xmlns:xlink="http://www.w3.org/1999/xlink" viewBox="0 0 544.51 307.34"><defs><style>.cls-1{fill:#fff;}.cls-1,.cls-10,.cls-11,.cls-12,.cls-13,.cls-14,.cls-15,.cls-16,.cls-17,.cls-18,.cls-3,.cls-4,.cls-5,.cls-6,.cls-7,.cls-8,.cls-9{fill-rule:evenodd;}.cls-2{mask:url(#mask);}.cls-3{fill:#14151e;}.cls-4{fill:#1c1d25;}.cls-5{fill:#555a61;}.cls-6{fill:#2c2f36;}.cls-7{fill:#878b97;}.cls-8{fill:#17181f;}.cls-9{fill:#a3d49c;}.cls-10{fill:#43b581;}.cls-11{fill:#2d3036;}.cls-12{fill:#5ac8fa;}.cls-13{fill:#696f75;}.cls-14{fill:#e6ebf4;}.cls-15{fill:#f6989d;}.cls-16{fill:#faa61a;}.cls-17{fill:#fc0;}.cls-18{fill:#0075f2;}.cls-19{fill:none;stroke:#1a1c1e;stroke-linecap:round;stroke-linejoin:round;stroke-width:3px;}</style><mask id="mask" x="-17.24" y="-16.49" width="579" height="469.62" maskUnits="userSpaceOnUse"><g id="b"><path id="a" class="cls-1" d="M-17.24,453.13h579V-16.49h-579Z"/></g></mask></defs><g class="cls-2"><path class="cls-3" d="M178.67,307.34H544.51V0H178.67"/></g><g class="cls-2"><path class="cls-4" d="M47.83,307.34H178.67V.25H47.83"/></g><g class="cls-2"><path class="cls-5" d="M87.58,82.79H63.13a2.51,2.51,0,0,1-2.51-2.51v-5a2.51,2.51,0,0,1,2.51-2.51H87.58a2.51,2.51,0,0,1,2.51,2.51v5a2.51,2.51,0,0,1-2.51,2.51m51,0H99.08a2.51,2.51,0,0,1-2.51-2.51v-5a2.51,2.51,0,0,1,2.51-2.51h39.46a2.5,2.5,0,0,1,2.5,2.51v5a2.5,2.5,0,0,1-2.5,2.51"/></g><g class="cls-2"><path class="cls-6" d="M49.94,58.68H178.67V36.19H49.94"/></g><g class="cls-2"><path class="cls-5" d="M123.36,52.61H84.65a2.51,2.51,0,0,1-2.51-2.51v-5a2.51,2.51,0,0,1,2.51-2.51h38.71a2.51,2.51,0,0,1,2.51,2.51v5a2.51,2.51,0,0,1-2.51,2.51"/></g><g class="cls-2"><path class="cls-7" d="M48.85,58.68H51V36.19H48.85"/></g><g class="cls-2"><path class="cls-8" d="M47.83,307.34H178.67V264.26H47.83"/></g><g class="cls-2"><path class="cls-9" d="M85.47,284.68a12.55,12.55,0,1,1-12.55-12.54,12.55,12.55,0,0,1,12.55,12.54"/></g><g class="cls-2"><path class="cls-10" d="M91.49,291a6.28,6.28,0,1,1-6.27-6.27A6.27,6.27,0,0,1,91.49,291"/></g><g class="cls-2"><path class="cls-7" d="M140.43,283.42H100.28a2.5,2.5,0,0,1-2.51-2.5v-2.51a2.51,2.51,0,0,1,2.51-2.51h40.15a2.51,2.51,0,0,1,2.51,2.51v2.51a2.51,2.51,0,0,1-2.51,2.5"/></g><g class="cls-2"><path class="cls-5" d="M121.61,293.32H100.28a2.5,2.5,0,0,1-2.51-2.5v-1.26a2.51,2.51,0,0,1,2.51-2.51h21.33a2.52,2.52,0,0,1,2.51,2.51v1.26a2.51,2.51,0,0,1-2.51,2.5M162.65,23H63.13a2.51,2.51,0,0,1-2.51-2.51V13a2.51,2.51,0,0,1,2.51-2.51h99.52A2.51,2.51,0,0,1,165.16,13v7.52A2.51,2.51,0,0,1,162.65,23"/></g><g class="cls-2"><path class="cls-8" d="M.23,307.34H48.85V.25H.23"/></g><g class="cls-2"><path class="cls-11" d="M39.1,120.33a15.06,15.06,0,1,1-15.06-15,15.05,15.05,0,0,1,15.06,15M27.36,7.79A3.32,3.32,0,1,1,24,4.47a3.31,3.31,0,0,1,3.32,3.32m-11.61,0a3.32,3.32,0,1,1-3.32-3.32,3.32,3.32,0,0,1,3.32,3.32M39,7.79a3.32,3.32,0,1,1-3.32-3.32A3.31,3.31,0,0,1,39,7.79M39.1,158A15.06,15.06,0,1,1,24,142.9,15.05,15.05,0,0,1,39.1,158m0-75A15.06,15.06,0,1,1,24,67.86a15,15,0,0,1,15.06,15"/></g><g class="cls-2"><path class="cls-12" d="M39.1,195.57a15.06,15.06,0,1,1-15.06-15,15.05,15.05,0,0,1,15.06,15"/></g><g class="cls-2"><path class="cls-11" d="M37.22,60.31H10.87a1.88,1.88,0,1,1,0-3.76H37.22a1.88,1.88,0,0,1,0,3.76"/></g><g class="cls-2"><path class="cls-7" d="M244.07,23H198.7a2.5,2.5,0,0,1-2.49-2.49V12.94a2.49,2.49,0,0,1,2.49-2.48h45.37a2.49,2.49,0,0,1,2.49,2.48v7.57A2.5,2.5,0,0,1,244.07,23"/></g><g class="cls-2"><path class="cls-13" d="M222.32,45.32H198.7a2.49,2.49,0,0,1-2.49-2.49V39.77a2.49,2.49,0,0,1,2.49-2.49h23.62a2.49,2.49,0,0,1,2.49,2.49v3.06a2.49,2.49,0,0,1-2.49,2.49m99.25,0H298a2.49,2.49,0,0,1-2.49-2.49V39.77A2.49,2.49,0,0,1,298,37.28h23.62a2.49,2.49,0,0,1,2.49,2.49v3.06a2.49,2.49,0,0,1-2.49,2.49M297.61,23H274.75a2.49,2.49,0,0,1-2.49-2.49V12.94a2.48,2.48,0,0,1,2.49-2.48h22.86a2.48,2.48,0,0,1,2.49,2.48v7.57A2.49,2.49,0,0,1,297.61,23m37.5,0H312.25a2.49,2.49,0,0,1-2.49-2.49V12.94a2.48,2.48,0,0,1,2.49-2.48h22.86a2.48,2.48,0,0,1,2.49,2.48v7.57A2.49,2.49,0,0,1,335.11,23m37.5,0H349.75a2.49,2.49,0,0,1-2.49-2.49V12.94a2.48,2.48,0,0,1,2.49-2.48h22.86a2.48,2.48,0,0,1,2.49,2.48v7.57A2.49,2.49,0,0,1,372.61,23m37.5,0H387.25a2.49,2.49,0,0,1-2.49-2.49V12.94a2.48,2.48,0,0,1,2.49-2.48h22.86a2.48,2.48,0,0,1,2.49,2.48v7.57A2.49,2.49,0,0,1,410.11,23"/></g><g class="cls-2"><path class="cls-7" d="M529.45,23a6.27,6.27,0,1,1,6.27-6.27A6.28,6.28,0,0,1,529.45,23"/></g><g class="cls-2"><path class="cls-13" d="M535.67,54.34H187.59a1.13,1.13,0,1,1,0-2.25H535.67a1.13,1.13,0,0,1,0,2.25m-6.75,34.32H197.34a1.13,1.13,0,1,1,0-2.25H528.92a1.13,1.13,0,0,1,0,2.25M259.19,75.37h-38.7A2.51,2.51,0,0,1,218,72.86v-5a2.51,2.51,0,0,1,2.51-2.51h38.7a2.51,2.51,0,0,1,2.51,2.51v5a2.51,2.51,0,0,1-2.51,2.51m79,0H314.52A2.51,2.51,0,0,1,312,72.86v-5a2.51,2.51,0,0,1,2.51-2.51h23.71a2.51,2.51,0,0,1,2.51,2.51v5a2.51,2.51,0,0,1-2.51,2.51m63.23,0H347.75a2.51,2.51,0,0,1-2.51-2.51v-5a2.51,2.51,0,0,1,2.51-2.51h53.71a2.5,2.5,0,0,1,2.5,2.51v5a2.5,2.5,0,0,1-2.5,2.51m18.22,0H411a2.51,2.51,0,0,1-2.51-2.51v-5A2.51,2.51,0,0,1,411,65.34h8.71a2.51,2.51,0,0,1,2.51,2.51v5a2.51,2.51,0,0,1-2.51,2.51"/></g><g class="cls-2"><path class="cls-14" d="M210.46,70.51a7.13,7.13,0,1,1-7.12-7.12,7.12,7.12,0,0,1,7.12,7.12"/></g><g class="cls-2"><path class="cls-10" d="M304.84,70.51a3,3,0,1,1-3-3,3,3,0,0,1,3,3"/></g><g class="cls-2"><path class="cls-13" d="M528.92,123.89H197.34a1.13,1.13,0,1,1,0-2.25H528.92a1.13,1.13,0,0,1,0,2.25M271.19,110.6h-50.7a2.5,2.5,0,0,1-2.51-2.5v-5a2.51,2.51,0,0,1,2.51-2.51h50.7a2.51,2.51,0,0,1,2.51,2.51v5a2.5,2.5,0,0,1-2.51,2.5m67,0H314.52a2.5,2.5,0,0,1-2.51-2.5v-5a2.51,2.51,0,0,1,2.51-2.51h23.71a2.51,2.51,0,0,1,2.51,2.51v5a2.51,2.51,0,0,1-2.51,2.5m40.73,0H347.75a2.5,2.5,0,0,1-2.51-2.5v-5a2.51,2.51,0,0,1,2.51-2.51H379a2.5,2.5,0,0,1,2.5,2.51v5a2.5,2.5,0,0,1-2.5,2.5m33.22,0H388.47a2.51,2.51,0,0,1-2.51-2.5v-5a2.51,2.51,0,0,1,2.51-2.51h23.71a2.51,2.51,0,0,1,2.51,2.51v5a2.5,2.5,0,0,1-2.51,2.5"/></g><g class="cls-2"><path class="cls-15" d="M210.46,105.74a7.13,7.13,0,1,1-7.12-7.12,7.12,7.12,0,0,1,7.12,7.12"/></g><g class="cls-2"><path class="cls-10" d="M304.84,105.74a3,3,0,1,1-3-3,3,3,0,0,1,3,3"/></g><g class="cls-2"><path class="cls-13" d="M528.92,159.12H197.34a1.12,1.12,0,1,1,0-2.24H528.92a1.12,1.12,0,1,1,0,2.24M236.69,145.83h-16.2a2.5,2.5,0,0,1-2.51-2.5v-5a2.51,2.51,0,0,1,2.51-2.51h16.2a2.51,2.51,0,0,1,2.51,2.51v5a2.5,2.5,0,0,1-2.51,2.5m101.54,0H314.52a2.5,2.5,0,0,1-2.51-2.5v-5a2.51,2.51,0,0,1,2.51-2.51h23.71a2.52,2.52,0,0,1,2.51,2.51v5a2.51,2.51,0,0,1-2.51,2.5m63.23,0H347.75a2.5,2.5,0,0,1-2.51-2.5v-5a2.51,2.51,0,0,1,2.51-2.51h53.71a2.51,2.51,0,0,1,2.5,2.51v5a2.5,2.5,0,0,1-2.5,2.5m18.22,0H411a2.51,2.51,0,0,1-2.51-2.5v-5A2.52,2.52,0,0,1,411,135.8h8.71a2.51,2.51,0,0,1,2.51,2.51v5a2.5,2.5,0,0,1-2.51,2.5"/></g><g class="cls-2"><path class="cls-16" d="M210.46,141a7.13,7.13,0,1,1-7.12-7.12,7.12,7.12,0,0,1,7.12,7.12"/></g><g class="cls-2"><path class="cls-10" d="M304.84,141a3,3,0,1,1-3-3,3,3,0,0,1,3,3"/></g><g class="cls-2"><path class="cls-13" d="M528.92,194.36H197.34a1.13,1.13,0,1,1,0-2.25H528.92a1.13,1.13,0,0,1,0,2.25M244.19,181.07h-23.7a2.51,2.51,0,0,1-2.51-2.51v-5a2.51,2.51,0,0,1,2.51-2.51h23.7a2.51,2.51,0,0,1,2.51,2.51v5a2.51,2.51,0,0,1-2.51,2.51m94,0H314.52a2.51,2.51,0,0,1-2.51-2.51v-5a2.51,2.51,0,0,1,2.51-2.51h23.71a2.52,2.52,0,0,1,2.51,2.51v5a2.52,2.52,0,0,1-2.51,2.51"/></g><g class="cls-2"><path class="cls-16" d="M210.46,176.2a7.13,7.13,0,1,1-7.12-7.12,7.12,7.12,0,0,1,7.12,7.12"/></g><g class="cls-2"><path class="cls-17" d="M304.84,176.2a3,3,0,1,1-3-3,3,3,0,0,1,3,3"/></g><g class="cls-2"><path class="cls-13" d="M528.92,229.59H197.34a1.13,1.13,0,1,1,0-2.25H528.92a1.13,1.13,0,0,1,0,2.25M272.69,216.3h-52.2a2.51,2.51,0,0,1-2.51-2.51v-5a2.5,2.5,0,0,1,2.51-2.5h52.2a2.5,2.5,0,0,1,2.51,2.5v5a2.51,2.51,0,0,1-2.51,2.51m65.54,0H314.52a2.51,2.51,0,0,1-2.51-2.51v-5a2.5,2.5,0,0,1,2.51-2.5h23.71a2.51,2.51,0,0,1,2.51,2.5v5a2.52,2.52,0,0,1-2.51,2.51m63.23,0H347.75a2.51,2.51,0,0,1-2.51-2.51v-5a2.5,2.5,0,0,1,2.51-2.5h53.71a2.5,2.5,0,0,1,2.5,2.5v5a2.51,2.51,0,0,1-2.5,2.51m18.22,0H411a2.52,2.52,0,0,1-2.51-2.51v-5a2.51,2.51,0,0,1,2.51-2.5h8.71a2.5,2.5,0,0,1,2.51,2.5v5a2.51,2.51,0,0,1-2.51,2.51"/></g><g class="cls-2"><path class="cls-14" d="M210.46,211.43a7.13,7.13,0,1,1-7.12-7.12,7.13,7.13,0,0,1,7.12,7.12"/></g><g class="cls-2"><path class="cls-10" d="M304.84,211.43a3,3,0,1,1-3-3,3,3,0,0,1,3,3"/></g><g class="cls-2"><path class="cls-13" d="M528.92,264.82H197.34a1.13,1.13,0,1,1,0-2.25H528.92a1.13,1.13,0,0,1,0,2.25M254.69,251.53h-34.2A2.51,2.51,0,0,1,218,249v-5a2.5,2.5,0,0,1,2.51-2.5h34.2a2.5,2.5,0,0,1,2.51,2.5v5a2.51,2.51,0,0,1-2.51,2.51m83.54,0H314.52A2.51,2.51,0,0,1,312,249v-5a2.5,2.5,0,0,1,2.51-2.5h23.71a2.51,2.51,0,0,1,2.51,2.5v5a2.51,2.51,0,0,1-2.51,2.51"/></g><g class="cls-2"><path class="cls-16" d="M210.46,246.67a7.13,7.13,0,1,1-7.12-7.13,7.12,7.12,0,0,1,7.12,7.13"/></g><g class="cls-2"><path class="cls-13" d="M304.84,246.67a3,3,0,1,1-3-3,3,3,0,0,1,3,3M528.92,297.8H197.34a1.13,1.13,0,1,1,0-2.25H528.92a1.13,1.13,0,0,1,0,2.25m-263-13.29H220.49A2.51,2.51,0,0,1,218,282v-5a2.51,2.51,0,0,1,2.51-2.51h45.45a2.51,2.51,0,0,1,2.51,2.51v5a2.51,2.51,0,0,1-2.51,2.51m72.29,0H314.52A2.51,2.51,0,0,1,312,282v-5a2.51,2.51,0,0,1,2.51-2.51h23.71a2.51,2.51,0,0,1,2.51,2.51v5a2.51,2.51,0,0,1-2.51,2.51"/></g><g class="cls-2"><path class="cls-12" d="M210.46,279.65a7.13,7.13,0,1,1-7.12-7.12,7.12,7.12,0,0,1,7.12,7.12"/></g><g class="cls-2"><path class="cls-17" d="M304.84,279.65a3,3,0,1,1-3-3,3,3,0,0,1,3,3"/></g><g class="cls-2"><path class="cls-5" d="M74.63,47.59a7.13,7.13,0,1,1-7.13-7.12,7.13,7.13,0,0,1,7.13,7.12"/></g><g class="cls-2"><path class="cls-7" d="M.23,24.74H2.74a2.51,2.51,0,0,1,2.51,2.51V41a2.51,2.51,0,0,1-2.51,2.51H.23Z"/></g><g class="cls-2"><path class="cls-18" d="M31.57,49.19h-15A7.53,7.53,0,0,1,9,41.67v-15a7.53,7.53,0,0,1,7.53-7.52H31.57a7.53,7.53,0,0,1,7.53,7.52V41.67a7.53,7.53,0,0,1-7.53,7.52"/></g><g class="cls-2"><path class="cls-5" d="M123.36,99.82H84.65a2.51,2.51,0,0,1-2.51-2.51v-5a2.5,2.5,0,0,1,2.51-2.5h38.71a2.5,2.5,0,0,1,2.51,2.5v5a2.51,2.51,0,0,1-2.51,2.51"/></g><g class="cls-2"><path class="cls-16" d="M74.63,95a7.13,7.13,0,1,1-7.13-7.12A7.13,7.13,0,0,1,74.63,95"/></g><g class="cls-2"><path class="cls-10" d="M74.63,99.83a2.25,2.25,0,1,1-2.25-2.25,2.25,2.25,0,0,1,2.25,2.25"/></g><g class="cls-2"><path class="cls-5" d="M123.36,120.81H84.65a2.51,2.51,0,0,1-2.51-2.51v-5a2.51,2.51,0,0,1,2.51-2.51h38.71a2.51,2.51,0,0,1,2.51,2.51v5a2.51,2.51,0,0,1-2.51,2.51"/></g><g class="cls-2"><path class="cls-12" d="M74.63,115.94a7.13,7.13,0,1,1-7.13-7.12,7.12,7.12,0,0,1,7.13,7.12"/></g><g class="cls-2"><path class="cls-10" d="M74.63,120.82a2.25,2.25,0,1,1-2.25-2.25,2.24,2.24,0,0,1,2.25,2.25"/></g><g class="cls-2"><path class="cls-19" d="M0,307.34H544.51V0H0Z"/></g></svg>